<svg xmlns="http://www.w3.org/2000/svg" viewBox="0 0 400 300" fill="none">
  <defs>
    <linearGradient id="sky6" x1="0" y1="0" x2="0" y2="1">
      <stop offset="0%" stop-color="#e0e0e0"/>
      <stop offset="100%" stop-color="#f5f5f5"/>
    </linearGradient>
    <linearGradient id="alu" x1="0" y1="0" x2="0" y2="1">
      <stop offset="0%" stop-color="#424242"/>
      <stop offset="15%" stop-color="#616161"/>
      <stop offset="50%" stop-color="#424242"/>
      <stop offset="85%" stop-color="#616161"/>
      <stop offset="100%" stop-color="#424242"/>
    </linearGradient>
    <linearGradient id="alupost" x1="0" y1="0" x2="1" y2="0">
      <stop offset="0%" stop-color="#424242"/>
      <stop offset="50%" stop-color="#757575"/>
      <stop offset="100%" stop-color="#424242"/>
    </linearGradient>
  </defs>
  <rect width="400" height="300" fill="url(#sky6)"/>
  <rect x="0" y="252" width="400" height="48" fill="#e0e0e0"/>
  <rect x="0" y="250" width="400" height="4" fill="#bdbdbd"/>
  <!-- Modern concrete base -->
  <rect x="25" y="240" width="350" height="14" fill="#9e9e9e" rx="1"/>
  <!-- Sleek aluminium posts -->
  <rect x="35" y="62" width="18" height="180" fill="url(#alupost)" rx="3"/>
  <rect x="35" y="58" width="18" height="8" fill="#757575" rx="3"/>
  <rect x="191" y="62" width="18" height="180" fill="url(#alupost)" rx="3"/>
  <rect x="191" y="58" width="18" height="8" fill="#757575" rx="3"/>
  <rect x="347" y="62" width="18" height="180" fill="url(#alupost)" rx="3"/>
  <rect x="347" y="58" width="18" height="8" fill="#757575" rx="3"/>
  <!-- Aluminium slats - left panel (with subtle metallic sheen) -->
  <g>
    <rect x="55" y="70" width="134" height="14" fill="#424242" rx="1"/>
    <rect x="55" y="70" width="134" height="2" fill="#616161" opacity="0.5" rx="1"/>
    <rect x="55" y="88" width="134" height="14" fill="#4e4e4e" rx="1"/>
    <rect x="55" y="88" width="134" height="2" fill="#6e6e6e" opacity="0.5" rx="1"/>
    <rect x="55" y="106" width="134" height="14" fill="#424242" rx="1"/>
    <rect x="55" y="106" width="134" height="2" fill="#616161" opacity="0.5" rx="1"/>
    <rect x="55" y="124" width="134" height="14" fill="#4e4e4e" rx="1"/>
    <rect x="55" y="142" width="134" height="14" fill="#424242" rx="1"/>
    <rect x="55" y="160" width="134" height="14" fill="#4e4e4e" rx="1"/>
    <rect x="55" y="178" width="134" height="14" fill="#424242" rx="1"/>
    <rect x="55" y="196" width="134" height="14" fill="#4e4e4e" rx="1"/>
    <rect x="55" y="214" width="134" height="14" fill="#424242" rx="1"/>
    <rect x="55" y="232" width="134" height="6" fill="#4e4e4e" rx="1"/>
  </g>
  <!-- Aluminium slats - right panel -->
  <g>
    <rect x="211" y="70" width="134" height="14" fill="#424242" rx="1"/>
    <rect x="211" y="70" width="134" height="2" fill="#616161" opacity="0.5" rx="1"/>
    <rect x="211" y="88" width="134" height="14" fill="#4e4e4e" rx="1"/>
    <rect x="211" y="88" width="134" height="2" fill="#6e6e6e" opacity="0.5" rx="1"/>
    <rect x="211" y="106" width="134" height="14" fill="#424242" rx="1"/>
    <rect x="211" y="124" width="134" height="14" fill="#4e4e4e" rx="1"/>
    <rect x="211" y="142" width="134" height="14" fill="#424242" rx="1"/>
    <rect x="211" y="160" width="134" height="14" fill="#4e4e4e" rx="1"/>
    <rect x="211" y="178" width="134" height="14" fill="#424242" rx="1"/>
    <rect x="211" y="196" width="134" height="14" fill="#4e4e4e" rx="1"/>
    <rect x="211" y="214" width="134" height="14" fill="#424242" rx="1"/>
    <rect x="211" y="232" width="134" height="6" fill="#4e4e4e" rx="1"/>
  </g>
</svg>
