<svg xmlns="http://www.w3.org/2000/svg" viewBox="0 0 400 300" fill="none">
  <defs>
    <linearGradient id="sky9" x1="0" y1="0" x2="0" y2="1">
      <stop offset="0%" stop-color="#efebe9"/>
      <stop offset="100%" stop-color="#d7ccc8"/>
    </linearGradient>
    <pattern id="rock" x="0" y="0" width="40" height="30" patternUnits="userSpaceOnUse">
      <rect width="40" height="30" fill="#9e9e9e"/>
      <path d="M0 0 Q10 5 20 2 Q30 -1 40 3 L40 15 Q30 12 20 15 Q10 18 0 14 Z" fill="#a0a0a0" opacity="0.5"/>
      <path d="M0 15 Q10 20 20 17 Q30 14 40 18 L40 30 Q30 27 20 30 Q10 27 0 30 Z" fill="#8e8e8e" opacity="0.4"/>
    </pattern>
  </defs>
  <rect width="400" height="300" fill="url(#sky9)"/>
  <rect x="0" y="252" width="400" height="48" fill="#8d6e63"/>
  <rect x="0" y="248" width="400" height="8" fill="#a5d6a7" rx="2"/>
  <!-- Concrete posts -->
  <rect x="38" y="68" width="22" height="184" fill="#9e9e9e" rx="2"/>
  <rect x="38" y="64" width="22" height="8" fill="#bdbdbd" rx="3"/>
  <line x1="42" y1="72" x2="42" y2="248" stroke="#8a8a8a" stroke-width="1"/>
  <line x1="56" y1="72" x2="56" y2="248" stroke="#8a8a8a" stroke-width="1"/>
  <rect x="190" y="68" width="22" height="184" fill="#9e9e9e" rx="2"/>
  <rect x="190" y="64" width="22" height="8" fill="#bdbdbd" rx="3"/>
  <line x1="194" y1="72" x2="194" y2="248" stroke="#8a8a8a" stroke-width="1"/>
  <line x1="208" y1="72" x2="208" y2="248" stroke="#8a8a8a" stroke-width="1"/>
  <rect x="340" y="68" width="22" height="184" fill="#9e9e9e" rx="2"/>
  <rect x="340" y="64" width="22" height="8" fill="#bdbdbd" rx="3"/>
  <!-- Concrete panels with rock texture -->
  <rect x="62" y="76" width="126" height="84" fill="url(#rock)" rx="1"/>
  <rect x="62" y="76" width="126" height="84" fill="#9e9e9e" opacity="0.3" rx="1"/>
  <rect x="62" y="162" width="126" height="84" fill="url(#rock)" rx="1"/>
  <rect x="62" y="162" width="126" height="84" fill="#8e8e8e" opacity="0.3" rx="1"/>
  <rect x="214" y="76" width="124" height="84" fill="url(#rock)" rx="1"/>
  <rect x="214" y="76" width="124" height="84" fill="#9e9e9e" opacity="0.3" rx="1"/>
  <rect x="214" y="162" width="124" height="84" fill="url(#rock)" rx="1"/>
  <rect x="214" y="162" width="124" height="84" fill="#8e8e8e" opacity="0.3" rx="1"/>
  <!-- Panel divider lines -->
  <line x1="62" y1="160" x2="188" y2="160" stroke="#888" stroke-width="1.5"/>
  <line x1="214" y1="160" x2="338" y2="160" stroke="#888" stroke-width="1.5"/>
  <!-- Rock texture detail -->
  <g stroke="#7a7a7a" stroke-width="0.5" opacity="0.4">
    <path d="M70 90 Q95 85 120 92 Q145 98 170 88"/>
    <path d="M70 110 Q100 115 130 108 Q160 102 180 112"/>
    <path d="M70 130 Q90 125 110 132 Q140 138 170 128"/>
    <path d="M70 175 Q95 170 120 178 Q145 184 170 174"/>
    <path d="M70 200 Q100 205 130 198 Q160 192 180 202"/>
    <path d="M70 225 Q90 220 110 228 Q140 234 170 224"/>
    <path d="M220 90 Q245 85 270 92 Q295 98 320 88"/>
    <path d="M220 110 Q250 115 280 108 Q310 102 330 112"/>
    <path d="M220 175 Q245 170 270 178 Q295 184 320 174"/>
    <path d="M220 200 Q250 205 280 198 Q310 192 330 202"/>
  </g>
</svg>
