<svg xmlns="http://www.w3.org/2000/svg" viewBox="0 0 400 300" fill="none">
  <defs>
    <linearGradient id="sky2" x1="0" y1="0" x2="0" y2="1">
      <stop offset="0%" stop-color="#e3f2fd"/>
      <stop offset="100%" stop-color="#bbdefb"/>
    </linearGradient>
    <linearGradient id="ground2" x1="0" y1="0" x2="0" y2="1">
      <stop offset="0%" stop-color="#8d6e63"/>
      <stop offset="100%" stop-color="#6d4c41"/>
    </linearGradient>
  </defs>
  <rect width="400" height="300" fill="url(#sky2)"/>
  <rect x="0" y="240" width="400" height="60" fill="url(#ground2)"/>
  <rect x="0" y="238" width="400" height="6" fill="#a5d6a7" rx="2"/>
  <!-- Posts -->
  <rect x="50" y="85" width="10" height="165" fill="#689f38" rx="1"/>
  <rect x="50" y="81" width="10" height="8" fill="#7cb342" rx="2"/>
  <rect x="170" y="85" width="10" height="165" fill="#689f38" rx="1"/>
  <rect x="170" y="81" width="10" height="8" fill="#7cb342" rx="2"/>
  <rect x="290" y="85" width="10" height="165" fill="#689f38" rx="1"/>
  <rect x="290" y="81" width="10" height="8" fill="#7cb342" rx="2"/>
  <!-- Single horizontal wires -->
  <g stroke="#689f38" stroke-width="2">
    <line x1="60" y1="98" x2="290" y2="98"/>
    <line x1="60" y1="120" x2="290" y2="120"/>
    <line x1="60" y1="142" x2="290" y2="142"/>
    <line x1="60" y1="164" x2="290" y2="164"/>
    <line x1="60" y1="186" x2="290" y2="186"/>
    <line x1="60" y1="208" x2="290" y2="208"/>
    <line x1="60" y1="230" x2="290" y2="230"/>
  </g>
  <!-- Vertical wires with 3D bend -->
  <g stroke="#7cb342" stroke-width="1.5">
    <path d="M75 93 L75 108 Q78 110 75 112 L75 132 Q78 134 75 136 L75 155 Q78 157 75 159 L75 178 Q78 180 75 182 L75 200 Q78 202 75 204 L75 233"/>
    <path d="M95 93 L95 108 Q98 110 95 112 L95 132 Q98 134 95 136 L95 155 Q98 157 95 159 L95 178 Q98 180 95 182 L95 200 Q98 202 95 204 L95 233"/>
    <path d="M115 93 L115 108 Q118 110 115 112 L115 132 Q118 134 115 136 L115 155 Q118 157 115 159 L115 178 Q118 180 115 182 L115 200 Q118 202 115 204 L115 233"/>
    <path d="M135 93 L135 108 Q138 110 135 112 L135 132 Q138 134 135 136 L135 155 Q138 157 135 159 L135 178 Q138 180 135 182 L135 200 Q138 202 135 204 L135 233"/>
    <path d="M155 93 L155 108 Q158 110 155 112 L155 132 Q158 134 155 136 L155 155 Q158 157 155 159 L155 178 Q158 180 155 182 L155 200 Q158 202 155 204 L155 233"/>
    <path d="M195 93 L195 108 Q198 110 195 112 L195 132 Q198 134 195 136 L195 155 Q198 157 195 159 L195 178 Q198 180 195 182 L195 200 Q198 202 195 204 L195 233"/>
    <path d="M215 93 L215 108 Q218 110 215 112 L215 132 Q218 134 215 136 L215 155 Q218 157 215 159 L215 178 Q218 180 215 182 L215 200 Q218 202 215 204 L215 233"/>
    <path d="M235 93 L235 108 Q238 110 235 112 L235 132 Q238 134 235 136 L235 155 Q238 157 235 159 L235 178 Q238 180 235 182 L235 200 Q238 202 235 204 L235 233"/>
    <path d="M255 93 L255 108 Q258 110 255 112 L255 132 Q258 134 255 136 L255 155 Q258 157 255 159 L255 178 Q258 180 255 182 L255 200 Q258 202 255 204 L255 233"/>
    <path d="M275 93 L275 108 Q278 110 275 112 L275 132 Q278 134 275 136 L275 155 Q278 157 275 159 L275 178 Q278 180 275 182 L275 200 Q278 202 275 204 L275 233"/>
  </g>
</svg>
