<svg xmlns="http://www.w3.org/2000/svg" viewBox="0 0 400 300" fill="none">
  <defs>
    <linearGradient id="sky3" x1="0" y1="0" x2="0" y2="1">
      <stop offset="0%" stop-color="#fce4ec"/>
      <stop offset="100%" stop-color="#f8bbd0"/>
    </linearGradient>
    <linearGradient id="iron" x1="0" y1="0" x2="1" y2="1">
      <stop offset="0%" stop-color="#263238"/>
      <stop offset="50%" stop-color="#37474f"/>
      <stop offset="100%" stop-color="#263238"/>
    </linearGradient>
  </defs>
  <rect width="400" height="300" fill="url(#sky3)"/>
  <rect x="0" y="250" width="400" height="50" fill="#efebe9"/>
  <rect x="0" y="248" width="400" height="4" fill="#d7ccc8"/>
  <!-- Stone base -->
  <rect x="30" y="230" width="340" height="22" fill="#bdbdbd" rx="2"/>
  <rect x="30" y="228" width="340" height="4" fill="#9e9e9e" rx="1"/>
  <!-- Ornate posts -->
  <rect x="38" y="70" width="16" height="162" fill="#263238" rx="1"/>
  <circle cx="46" cy="68" r="8" fill="#37474f"/>
  <circle cx="46" cy="68" r="5" fill="#455a64"/>
  <rect x="178" y="70" width="16" height="162" fill="#263238" rx="1"/>
  <circle cx="186" cy="68" r="8" fill="#37474f"/>
  <circle cx="186" cy="68" r="5" fill="#455a64"/>
  <rect x="328" y="70" width="16" height="162" fill="#263238" rx="1"/>
  <circle cx="336" cy="68" r="8" fill="#37474f"/>
  <circle cx="336" cy="68" r="5" fill="#455a64"/>
  <!-- Top rail -->
  <rect x="54" y="85" width="124" height="6" fill="#37474f" rx="2"/>
  <rect x="194" y="85" width="134" height="6" fill="#37474f" rx="2"/>
  <!-- Bottom rail -->
  <rect x="54" y="215" width="124" height="6" fill="#37474f" rx="2"/>
  <rect x="194" y="215" width="134" height="6" fill="#37474f" rx="2"/>
  <!-- Ornamental spears - left panel -->
  <g fill="#37474f" stroke="#263238" stroke-width="0.5">
    <rect x="72" y="91" width="4" height="124" rx="1"/>
    <path d="M74 91 L68 75 L74 65 L80 75 Z"/>
    <rect x="92" y="91" width="4" height="124" rx="1"/>
    <path d="M94 91 L88 75 L94 65 L100 75 Z"/>
    <rect x="112" y="91" width="4" height="124" rx="1"/>
    <path d="M114 91 L108 75 L114 65 L120 75 Z"/>
    <rect x="132" y="91" width="4" height="124" rx="1"/>
    <path d="M134 91 L128 75 L134 65 L140 75 Z"/>
    <rect x="152" y="91" width="4" height="124" rx="1"/>
    <path d="M154 91 L148 75 L154 65 L160 75 Z"/>
  </g>
  <!-- Ornamental spears - right panel -->
  <g fill="#37474f" stroke="#263238" stroke-width="0.5">
    <rect x="212" y="91" width="4" height="124" rx="1"/>
    <path d="M214 91 L208 75 L214 65 L220 75 Z"/>
    <rect x="235" y="91" width="4" height="124" rx="1"/>
    <path d="M237 91 L231 75 L237 65 L243 75 Z"/>
    <rect x="258" y="91" width="4" height="124" rx="1"/>
    <path d="M260 91 L254 75 L260 65 L266 75 Z"/>
    <rect x="281" y="91" width="4" height="124" rx="1"/>
    <path d="M283 91 L277 75 L283 65 L289 75 Z"/>
    <rect x="304" y="91" width="4" height="124" rx="1"/>
    <path d="M306 91 L300 75 L306 65 L312 75 Z"/>
  </g>
  <!-- Ornamental scrollwork -->
  <g stroke="#455a64" stroke-width="2" fill="none">
    <path d="M70 155 Q85 140 100 155 Q115 170 130 155 Q145 140 160 155"/>
    <path d="M210 155 Q228 140 246 155 Q264 170 282 155 Q300 140 318 155"/>
    <path d="M70 180 Q85 195 100 180 Q115 165 130 180 Q145 195 160 180"/>
    <path d="M210 180 Q228 195 246 180 Q264 165 282 180 Q300 195 318 180"/>
  </g>
</svg>
