<svg xmlns="http://www.w3.org/2000/svg" viewBox="0 0 400 300" fill="none">
  <defs>
    <linearGradient id="sky8" x1="0" y1="0" x2="0" y2="1">
      <stop offset="0%" stop-color="#e8eaf6"/>
      <stop offset="100%" stop-color="#c5cae9"/>
    </linearGradient>
  </defs>
  <rect width="400" height="300" fill="url(#sky8)"/>
  <rect x="0" y="250" width="400" height="50" fill="#efebe9"/>
  <rect x="0" y="248" width="400" height="4" fill="#d7ccc8"/>
  <!-- Base wall -->
  <rect x="30" y="230" width="340" height="22" fill="#bdbdbd" rx="1"/>
  <!-- Posts -->
  <rect x="35" y="60" width="18" height="172" fill="#263238" rx="2"/>
  <rect x="35" y="56" width="18" height="8" fill="#37474f" rx="3"/>
  <rect x="187" y="60" width="18" height="172" fill="#263238" rx="2"/>
  <rect x="187" y="56" width="18" height="8" fill="#37474f" rx="3"/>
  <rect x="347" y="60" width="18" height="172" fill="#263238" rx="2"/>
  <rect x="347" y="56" width="18" height="8" fill="#37474f" rx="3"/>
  <!-- Top rail -->
  <rect x="53" y="78" width="134" height="6" fill="#37474f" rx="2"/>
  <rect x="205" y="78" width="142" height="6" fill="#37474f" rx="2"/>
  <!-- Bottom rail -->
  <rect x="53" y="218" width="134" height="6" fill="#37474f" rx="2"/>
  <rect x="205" y="218" width="142" height="6" fill="#37474f" rx="2"/>
  <!-- Mid rail -->
  <rect x="53" y="148" width="134" height="4" fill="#455a64" rx="1"/>
  <rect x="205" y="148" width="142" height="4" fill="#455a64" rx="1"/>
  <!-- Spijlen left panel -->
  <g fill="#37474f">
    <rect x="66" y="84" width="5" height="134" rx="1"/>
    <rect x="82" y="84" width="5" height="134" rx="1"/>
    <rect x="98" y="84" width="5" height="134" rx="1"/>
    <rect x="114" y="84" width="5" height="134" rx="1"/>
    <rect x="130" y="84" width="5" height="134" rx="1"/>
    <rect x="146" y="84" width="5" height="134" rx="1"/>
    <rect x="162" y="84" width="5" height="134" rx="1"/>
    <rect x="178" y="84" width="5" height="134" rx="1"/>
  </g>
  <!-- Pointed tops left -->
  <g fill="#37474f">
    <path d="M66 84 L68.5 70 L71 84 Z"/>
    <path d="M82 84 L84.5 70 L87 84 Z"/>
    <path d="M98 84 L100.5 70 L103 84 Z"/>
    <path d="M114 84 L116.5 70 L119 84 Z"/>
    <path d="M130 84 L132.5 70 L135 84 Z"/>
    <path d="M146 84 L148.5 70 L151 84 Z"/>
    <path d="M162 84 L164.5 70 L167 84 Z"/>
    <path d="M178 84 L180.5 70 L183 84 Z"/>
  </g>
  <!-- Spijlen right panel -->
  <g fill="#37474f">
    <rect x="218" y="84" width="5" height="134" rx="1"/>
    <rect x="236" y="84" width="5" height="134" rx="1"/>
    <rect x="254" y="84" width="5" height="134" rx="1"/>
    <rect x="272" y="84" width="5" height="134" rx="1"/>
    <rect x="290" y="84" width="5" height="134" rx="1"/>
    <rect x="308" y="84" width="5" height="134" rx="1"/>
    <rect x="326" y="84" width="5" height="134" rx="1"/>
  </g>
  <!-- Pointed tops right -->
  <g fill="#37474f">
    <path d="M218 84 L220.5 70 L223 84 Z"/>
    <path d="M236 84 L238.5 70 L241 84 Z"/>
    <path d="M254 84 L256.5 70 L259 84 Z"/>
    <path d="M272 84 L274.5 70 L277 84 Z"/>
    <path d="M290 84 L292.5 70 L295 84 Z"/>
    <path d="M308 84 L310.5 70 L313 84 Z"/>
    <path d="M326 84 L328.5 70 L331 84 Z"/>
  </g>
</svg>
